<svg class="thumb" width="200" height="200" viewBox="0,0,600,600" xmlns="http://www.w3.org/2000/svg" xmlns:inkscape="http://www.inkscape.org/namespaces/inkscape" xmlns:sodipodi="http://sodipodi.sourceforge.net/DTD/sodipodi-0.dtd" xmlns:xlink="http://www.w3.org/1999/xlink" xmlns:ns1="http://www.inkscape.org/namespaces/inkscape" xmlns:sketch="http://www.bohemiancoding.com/sketch/ns">
  <defs></defs>
  <g transform="matrix(0.6673,0,0,0.6673,24.418,193.7682)">
    <g transform="matrix(1.5127,0,0,1.5127,166.8021,0.5838)">
      <svg width="110" height="105.105" viewBox="-5,-5,110,105.105">
        <defs>
          <linearGradient x1="0" y1="0.5" x2="1" y2="0.5" id="linearGradientSki1xuhm94">
            <stop offset="0%" stop-color="#fcba00"></stop>
            <stop offset="100%" stop-color="#fcba00"></stop>
          </linearGradient>
        </defs>
        <g></g>
        <g></g>
        <g></g>
        <g>
          <polygon points="50,0 61.803,36.327 100,36.327 69.098,58.778 80.902,95.105 50,72.654 19.098,95.105 30.902,58.778 0,36.327   38.197,36.327 " stroke="none" fill="#000" style=""></polygon>
        </g>
      </svg>
    </g>
    <g transform="matrix(1.5127,0,0,1.5127,494.8021,0.5838)">
      <svg width="110" height="105.105" viewBox="-5,-5,110,105.105">
        <defs>
          <linearGradient x1="0" y1="0.5" x2="1" y2="0.5" id="linearGradientSki1xuhm9a">
            <stop offset="0%" stop-color="#fcba00"></stop>
            <stop offset="100%" stop-color="#fcba00"></stop>
          </linearGradient>
        </defs>
        <g></g>
        <g></g>
        <g></g>
        <g>
          <polygon points="50,0 61.803,36.327 100,36.327 69.098,58.778 80.902,95.105 50,72.654 19.098,95.105 30.902,58.778 0,36.327   38.197,36.327 " stroke="none" fill="#000" style=""></polygon>
        </g>
      </svg>
    </g>
    <g transform="matrix(1.5127,0,0,1.5127,329.8021,0.5838)">
      <svg width="110" height="105.105" viewBox="-5,-5,110,105.105">
        <defs>
          <linearGradient x1="0" y1="0.5" x2="1" y2="0.5" id="linearGradientSki1xuhm9g">
            <stop offset="0%" stop-color="#fcba00"></stop>
            <stop offset="100%" stop-color="#fcba00"></stop>
          </linearGradient>
        </defs>
        <g></g>
        <g></g>
        <g></g>
        <g>
          <polygon points="50,0 61.803,36.327 100,36.327 69.098,58.778 80.902,95.105 50,72.654 19.098,95.105 30.902,58.778 0,36.327   38.197,36.327 " stroke="none" fill="#000" style=""></polygon>
        </g>
      </svg>
    </g>
    <g transform="matrix(1.5127,0,0,1.5127,658.8021,0.5838)">
      <svg width="110" height="105.106" viewBox="-5,-5,110,105.106">
        <defs>
          <linearGradient x1="0" y1="0.5" x2="1" y2="0.5" id="linearGradientSki1xuhm9m">
            <stop offset="0%" stop-color="#fcba00"></stop>
            <stop offset="100%" stop-color="#fcba00"></stop>
          </linearGradient>
        </defs>
        <g></g>
        <g></g>
        <g></g>
        <g>
          <path d="M80.901,95.106L50,72.654L19.099,95.106l11.803-36.327L0,36.327h38.196L50,0l11.804,36.327H100L69.099,58.779L80.901,95.106  L80.901,95.106z M50,67.706l23.286,16.918L64.392,57.25l23.286-16.919H58.895L50,12.956l-8.895,27.375H12.322L35.608,57.25  l-8.895,27.374L50,67.706L50,67.706z" stroke="none" fill="#000" style=""></path>
        </g>
      </svg>
    </g>
    <g transform="matrix(1.5127,0,0,1.5127,0.802,0.5838)">
      <svg width="110" height="105.105" viewBox="-5,-5,110,105.105">
        <defs>
          <linearGradient x1="0" y1="0.5" x2="1" y2="0.5" id="linearGradientSki1xuhm9s">
            <stop offset="0%" stop-color="#fcba00"></stop>
            <stop offset="100%" stop-color="#fcba00"></stop>
          </linearGradient>
        </defs>
        <g></g>
        <g></g>
        <g></g>
        <g>
          <polygon points="50,0 61.803,36.327 100,36.327 69.098,58.778 80.902,95.105 50,72.654 19.098,95.105 30.902,58.778 0,36.327   38.197,36.327 " stroke="none" fill="#000" style=""></polygon>
        </g>
      </svg>
    </g>
    <g transform="matrix(2.2141,-0.4304,0.4304,2.2141,525.5132,79.9319)">
      <svg width="73.480201731795" height="110.00023814603416" viewBox="13.260169431515575,-5.000238146034164,73.480201731795,110.00023814603416">
        <defs>
          <linearGradient x1="0" y1="0.5" x2="1" y2="0.5" id="linearGradientSki1xuhm9y">
            <stop offset="0%" stop-color="#0d3b66"></stop>
            <stop offset="100%" stop-color="#0d3b66"></stop>
          </linearGradient>
        </defs>
        <g>
          <path d="M81.717,47.223c0,0-0.866,16.613-0.768,18.247c0.797,13.126-9.229,18.86-9.229,23.372S71.737,100,71.737,100H37.084   c0,0-0.23-3.922-0.529-9.005c-0.299-5.083-11.372-5.67-14.748-13.573c-2.005-5.896-3.469-19.338-3.469-19.338   c-0.672-5.302,3.082-10.145,8.384-10.815l2.895,18.601V6.748C29.591,3.583,32.545,0.035,36.866,0   c4.319-0.034,7.652,3.579,7.678,6.744v36.733l0.496-4.632c0.296-2.767,3.309-4.713,6.728-4.348c3.42,0.366,5.951,2.906,5.654,5.673   l-0.151,1.422c0.296-2.767,3.309-4.713,6.728-4.347c3.42,0.366,5.951,2.906,5.655,5.672c0,0-0.313,2.924-0.312,2.925   c0.329-2.738,3.323-4.657,6.721-4.293C79.48,41.916,82.012,44.456,81.717,47.223z" stroke="none" fill="#000" style=""></path>
        </g>
      </svg>
    </g>
    <g transform="matrix(0.0323,0.1397,-0.088,0.0203,591.7013,185.7021)">
      <svg width="510.8741404585792" height="362.20000000000005" viewBox="-5.3730685568929015,68.9,510.8741404585792,362.20000000000005">
        <defs>
          <linearGradient x1="0" y1="0.5" x2="1" y2="0.5" id="linearGradientSki1xuhm914">
            <stop offset="0%" stop-color="#0d3b66"></stop>
            <stop offset="100%" stop-color="#0d3b66"></stop>
          </linearGradient>
        </defs>
        <g></g>
        <g>
          <ellipse fill="#000" cx="250.064" cy="250" rx="250.064" ry="176.1" stroke="none" style=""></ellipse>
        </g>
      </svg>
    </g>
  </g>
</svg>